<svg xmlns="http://www.w3.org/2000/svg" style="display:none">
  <!-- LinkedIn -->
  <symbol id="icon-linkedin" viewBox="0 0 24 24">
    <path d="M20.447 20.452H17.21v-5.569c0-1.328-.027-3.036-1.852-3.036-1.853 0-2.136 1.445-2.136 2.939v5.666H9.0V9h3.111v1.561h.045c.433-.82 1.494-1.685 3.073-1.685 3.286 0 3.894 2.164 3.894 4.977v6.599zM5.337 7.433a1.863 1.863 0 1 1 0-3.726 1.863 1.863 0 0 1 0 3.726zM6.956 20.452H3.718V9h3.238v11.452z"/>
  </symbol>

  <!-- GitHub -->
  <symbol id="icon-github" viewBox="0 0 24 24">
    <path d="M12 .5C5.73.5.75 5.7.75 12.1c0 5.1 3.27 9.43 7.8 10.96.57.1.78-.26.78-.58v-2.1c-3.17.71-3.84-1.56-3.84-1.56-.52-1.36-1.27-1.72-1.27-1.72-1.04-.73.08-.72.08-.72 1.15.08 1.76 1.2 1.76 1.2 1.02 1.78 2.68 1.27 3.34.97.1-.76.4-1.27.72-1.56-2.53-.3-5.2-1.3-5.2-5.77 0-1.27.44-2.3 1.16-3.12-.12-.3-.5-1.5.1-3.13 0 0 .95-.31 3.12 1.19a10.5 10.5 0 0 1 2.84-.4c.96 0 1.93.14 2.84.4 2.16-1.5 3.11-1.19 3.11-1.19.6 1.63.22 2.83.1 3.13.72.82 1.16 1.85 1.16 3.12 0 4.48-2.68 5.47-5.22 5.76.41.37.78 1.08.78 2.18v3.23c0 .32.2.68.79.58 4.53-1.53 7.8-5.86 7.8-10.96C23.25 5.7 18.27.5 12 .5z"/>
  </symbol>

  <!-- Paper plane -->
  <symbol id="icon-paper-plane" viewBox="0 0 24 24">
    <path d="M2.01 21L23 12 2.01 3 2 10l15 2-15 2z"/>
  </symbol>

  <!-- Arrow up -->
  <symbol id="icon-arrow-up" viewBox="0 0 24 24">
    <path d="M4 12l1.41 1.41L11 7.83V20h2V7.83l5.59 5.58L20 12 12 4z"/>
  </symbol>

  <!-- Server -->
  <symbol id="icon-server" viewBox="0 0 24 24">
    <path d="M4 5c0-1.1.9-2 2-2h12c1.1 0 2 .9 2 2v4c0 1.1-.9 2-2 2H6c-1.1 0-2-.9-2-2V5zm2 0v4h12V5H6zm0 10h12v-4H6v4zm-2 0c0 1.1.9 2 2 2h12c1.1 0 2-.9 2-2v-4c0-1.1-.9-2-2-2H6c-1.1 0-2 .9-2 2v4zm4-1h2v-2H8v2zm0-6h2V6H8v2z"/>
  </symbol>

  <!-- Swimmer (simple) -->
  <symbol id="icon-swimmer" viewBox="0 0 24 24">
    <path d="M18 5.5a2.5 2.5 0 1 1-5 0 2.5 2.5 0 0 1 5 0zM3 13c1.5 0 3-.5 4.3-1.4l2.3-1.6c.6-.4 1.4-.3 1.9.2l2 2c.4.4 1 .5 1.5.2l2.8-1.6 1 1.7-3.3 1.9c-1.2.7-2.8.5-3.8-.5l-1.5-1.5-1.7 1.2C7.7 14.6 5.4 15.3 3 15.3V13zm0 5c2.6 0 5.1-.8 7.2-2.3l2.2-1.6 2.1 1.4c2.2 1.4 4.7 2.1 7.5 2.1v2c-3.2 0-6.2-.9-8.6-2.5l-1-.7-1 .7C8.7 20.7 6 21.5 3 21.5v-2z"/>
  </symbol>

  <!-- Gamepad -->
  <symbol id="icon-gamepad" viewBox="0 0 24 24">
    <path d="M7 9h10a4 4 0 0 1 3.9 3.2l1 4.6a2.5 2.5 0 0 1-4.4 2.1L15.8 16H8.2l-1.7 2.9A2.5 2.5 0 0 1 2.1 16.8l1-4.6A4 4 0 0 1 7 9zm1 2v2H6v2h2v2h2v-2h2v-2h-2v-2H8zm10 1a1 1 0 1 0 0 2 1 1 0 0 0 0-2zm-2 2a1 1 0 1 0 0 2 1 1 0 0 0 0-2z"/>
  </symbol>

  <!-- Tools (wrench) -->
  <symbol id="icon-tools" viewBox="0 0 24 24">
    <path d="M22.7 19.3l-6.1-6.1a7 7 0 0 1-8.7-8.7l3.1 3.1 2.1-2.1-3.1-3.1a7 7 0 0 1 8.7 8.7l6.1 6.1a2.7 2.7 0 0 1-3.8 3.8z"/>
  </symbol>

  <!-- Volume up -->
  <symbol id="icon-volume" viewBox="0 0 24 24">
    <path d="M3 10v4h4l5 5V5L7 10H3zm13.5 2a3.5 3.5 0 0 0-2-3.15v6.3a3.5 3.5 0 0 0 2-3.15zm0-8.5v2.06A7.5 7.5 0 0 1 19 12a7.5 7.5 0 0 1-2.5 5.44v2.06A9.5 9.5 0 0 0 21 12a9.5 9.5 0 0 0-4.5-8.5z"/>
  </symbol>

  <!-- Stop -->
  <symbol id="icon-stop" viewBox="0 0 24 24">
    <path d="M6 6h12v12H6z"/>
  </symbol>
</svg>

